#!OML:ASF F:\VICON\USERDATA\INSTALL\rory3\rory3.ASF
:FULLY-SPECIFIED
:DEGREES
36
root 0.6917174342484511 17.721452367713546 5.644671629756686 -1.502118549341522 2.3388510193070418 1.4355079387252037
lfemur 17.67091734932334 -5.206154753093818 -25.265708048717528
ltibia 21.9876762403538
lfoot -7.359816422411212 -7.364180847775565
ltoes -20.414636281950653
rfemur -30.449864340193123 4.617603243155145 19.771457921832557
rtibia 18.481487262233415
rfoot -2.1862338507723784 -8.305699381689323
rtoes -3.187488005757971
lowerback 9.556600424797555 -1.6934809483458486 -4.051147784003844
upperback 0.18935226362021723 -2.615543077394501 1.9622899084090568
thorax -4.991935705649429 -1.1638420998779306 4.702313286644997
lowerneck -17.13728045492615 -2.674612776891295 -1.9470419036751891
upperneck 20.542177599994808 -3.2398858168894904 0.24500974339544368
head 9.355815120563218 -1.635201245117833 -0.0408755144771808
lclavicle -1.3179120565949992e-15 -1.0864336314117304e-15
lhumerus -23.35854841868165 -4.108616708804448 80.26719767588594
lradius 31.529552051304496
lwrist 8.048174251616263
lhand -30.74824217628241 23.508940130382072
lfingers 7.125020000000056
lthumb -4.039718986224865 53.4504745701729
rclavicle -1.3179120565949992e-15 -1.0864336314117304e-15
rhumerus -39.61392553422388 -31.176105217377774 -69.64504268431877
rradius 18.163401616687416
rwrist 12.859494759022425
rhand -17.76086838396746 29.665008262789872
rfingers 7.125020000000056
rthumb 8.501537132609853 -7.434575366245102
37
root 0.6715693192963981 17.78240927564818 6.781122747822685 -2.1802753750322417 2.3380254504957327 0.029551161236833323
lfemur 15.265010538854465 -5.1648243203197275 -22.976182607663507
ltibia 31.45398022838554
lfoot 0.6639462071330926 -11.931252405029856
ltoes -21.686099414849583
rfemur -28.657775819251967 4.216791382322544 22.158717468408042
rtibia 23.43266673841282
rfoot -1.1012325688793294 -6.001554222048775
rtoes 2.5898409686939785
lowerback 9.617208653549106 -1.7481967128550928 -2.8697998916232086
upperback 0.17966441690926882 -2.531098275103244 2.428633857275322
thorax -5.067530835148666 -1.1452655038415718 4.470263763578858
lowerneck -16.992453008851882 -2.5614516711166226 -1.8919759388480482
upperneck 20.754817870665192 -3.0373373741341068 -0.03953594650448333
head 9.390039562630779 -1.568919393123931 -0.1255208934941212
lclavicle -1.3129029612942032e-15 -1.082555073180793e-15
lhumerus -24.757455322041068 -2.90202409654969 80.74606109286879
lradius 30.731181851537645
lwrist 7.624814023218629
lhand -30.396207986970925 23.639097704114477
lfingers 7.125020000000056
lthumb -3.6997419303000454 53.58414398663779
rclavicle -1.3129029612942032e-15 -1.082555073180793e-15
rhumerus -40.480583565712294 -32.92499634495687 -67.99902793178175
rradius 17.15124088621276
rwrist 14.674145415162766
rhand -17.653316595567173 29.742354007723193
rfingers 7.125020000000056
rthumb 8.605306716447387 -7.600320785139787
38
root 0.652321412783648 17.881212763024852 7.791992336797163 -2.9240767844832085 2.346394273694474 -1.4533179836462873
lfemur 11.079318110370256 -4.399477486319493 -20.321112446515038
ltibia 42.69840026719832
lfoot 10.051250048571982 -16.40807315764512
ltoes -18.491811623074693
rfemur -25.93192465728044 4.202604675665247 24.564326486812575
rtibia 26.89927928571021
rfoot -1.372537095025562 -4.939806247737863
rtoes 8.140070342976633
lowerback 9.782745384316394 -1.7492920153068132 -1.5768030040797327
upperback 0.17440648223750682 -2.371028028257509 2.8530585484650324
thorax -5.201852041941075 -1.0894743086270302 4.138784164191364
lowerneck -16.742109628837593 -2.4894358713968785 -1.8226070712918474
upperneck 20.91504894099956 -2.930205207962447 -0.1784226089356853
head 9.389223897721095 -1.5315569992130458 -0.17150690280377479
lclavicle -1.2440113544025596e-15 -1.0292121039787462e-15
lhumerus -26.139275862213836 -2.15047462993278 81.30212240740669
lradius 29.66347137847269
lwrist 6.974538023103349
lhand -29.7493614365151 24.005307390946136
lfingers 7.125020000000056
lthumb -3.075057170730142 53.95619102238854
rclavicle -1.2440113544025596e-15 -1.0292121039787462e-15
rhumerus -40.73090878026969 -33.56789891381872 -67.39017459034088
rradius 16.558478197597324
rwrist 15.175546182524602
rhand -17.483001677756906 29.828241739705973
rfingers 7.125020000000056
rthumb 8.769648421579719 -7.520456289033945
39
root 0.6204433380493031 17.991209003981176 8.662074298751234 -3.537418448131759 2.3002949944124063 -2.808559885043109
lfemur 5.44265006898603 -3.0321769856108434 -17.62291015850494
ltibia 54.57152923327344
lfoot 16.96925354060144 -18.964255568938068
ltoes -13.008660267238017
rfemur -22.587167847147942 4.643085494845075 26.931986159979434
rtibia 29.030687879045054
rfoot -3.3375498004474853 -5.040506628039403
rtoes 11.702732596567746
lowerback 10.03189446247321 -1.6242975814403149 -0.36766995288926174
upperback 0.23220816872739636 -2.058982856430992 3.1487710169875758
thorax -5.309158079986608 -0.9579576106582229 3.721374853411361
lowerneck -16.51128053869745 -2.5282949599279685 -1.7572241876514998
upperneck 21.064481270308065 -3.0155269362134263 -0.1435891590670404
head 9.392864501749852 -1.565519601554243 -0.17854843751576643
lclavicle -1.1006007586287286e-15 -9.18168868386909e-16
lhumerus -27.32004359802203 -1.9218792251464725 82.05385641513014
lradius 28.651875359818987
lwrist 6.174703408647915
lhand -28.957695117616723 24.26764875281082
lfingers 7.125020000000056
lthumb -2.310549327481944 54.222082490902075
rclavicle -1.1006007586287286e-15 -9.18168868386909e-16
rhumerus -39.889090794519056 -32.70449125987519 -68.16954002597016
rradius 16.645027420693864
rwrist 14.375972496098179
rhand -17.392880086256987 29.837214302577383
rfingers 7.125020000000056
rthumb 8.856655004897842 -7.041846358300196
